<svg width="125" height="42" viewBox="0 0 125 42" fill="none" xmlns="http://www.w3.org/2000/svg">
<rect x="0.21582" width="123.914" height="42" rx="6" fill="black"/>
<path d="M25.1278 8.6897C25.278 10.0467 24.7367 11.384 23.9456 12.3669C23.12 13.3345 21.7993 14.0747 20.513 13.9793C20.3446 12.6736 20.9964 11.2851 21.726 10.4379C22.5506 9.47658 23.9827 8.74006 25.1278 8.6897Z" fill="#C89850"/>
<path d="M29.3387 16.5179C29.1951 16.6031 26.8162 18.0136 26.8423 20.8904C26.873 24.3643 29.9019 25.5127 29.9381 25.5244C29.92 25.6054 29.4637 27.1836 28.3277 28.7826C27.379 30.1927 26.3851 31.5713 24.8064 31.5947C24.0557 31.6123 23.5488 31.3979 23.0205 31.1745C22.4698 30.9417 21.8959 30.699 20.9982 30.699C20.0465 30.699 19.4472 30.9497 18.8692 31.1914C18.3691 31.4006 17.885 31.6031 17.2027 31.6306C15.6991 31.6855 14.5504 30.127 13.5673 28.7295C11.6021 25.8779 10.0723 20.6934 12.1235 17.1655C13.1174 15.4353 14.9297 14.3211 16.8668 14.2914C17.7199 14.2741 18.538 14.6007 19.2552 14.887C19.8037 15.1059 20.2932 15.3013 20.6941 15.3013C21.0462 15.3013 21.5219 15.1137 22.0763 14.8951C22.9501 14.5506 24.0194 14.1289 25.1088 14.2428C25.8538 14.2644 27.9738 14.5351 29.3415 16.5162L29.3387 16.5179Z" fill="#C89850"/>
<path fill-rule="evenodd" clip-rule="evenodd" d="M40.2284 9.46421H38.1034V15.7452H40.2284C42.108 15.7452 43.2121 14.583 43.2121 12.6025C43.2121 10.6264 42.1036 9.46421 40.2284 9.46421ZM38.8921 10.1694V15.04H40.1758C41.6085 15.04 42.4059 14.1695 42.4059 12.6112C42.4059 11.0399 41.6129 10.1694 40.1758 10.1694H38.8921Z" fill="#C89850"/>
<path fill-rule="evenodd" clip-rule="evenodd" d="M46.2583 15.8235C44.9965 15.8235 44.1465 14.9225 44.1465 13.4818C44.1465 12.0367 44.9965 11.14 46.2583 11.14C47.5158 11.14 48.3658 12.0367 48.3658 13.4818C48.3658 14.9225 47.5158 15.8235 46.2583 15.8235ZM47.5903 13.4818C47.5903 14.5482 47.0645 15.1576 46.2583 15.1576C45.4522 15.1576 44.922 14.5482 44.922 13.4818C44.922 12.4154 45.4522 11.806 46.2583 11.806C47.0645 11.806 47.5903 12.4154 47.5903 13.4818Z" fill="#C89850"/>
<path d="M53.1821 15.7452H53.9576L55.2282 11.2184H54.4746L53.5633 14.9008H53.5457L52.5117 11.2184H51.7757L50.746 14.9008H50.7285L49.8172 11.2184H49.0592L50.3342 15.7452H51.1097L52.1349 12.2412H52.1525L53.1821 15.7452Z" fill="#C89850"/>
<path d="M56.868 11.2184H56.1494V15.7452H56.9118V13.0813C56.9118 12.3152 57.3806 11.8103 58.0992 11.8103C58.8002 11.8103 59.1463 12.2108 59.1463 12.942V15.7452H59.9087V12.8071C59.9087 11.7799 59.3303 11.14 58.3314 11.14C57.626 11.14 57.1396 11.4534 56.8855 11.9409H56.868V11.2184Z" fill="#C89850"/>
<path d="M61.2155 9.46421V15.7452H61.9778V9.46421H61.2155Z" fill="#C89850"/>
<path fill-rule="evenodd" clip-rule="evenodd" d="M63.0831 13.4818C63.0831 14.9225 63.9331 15.8235 65.1949 15.8235C66.4524 15.8235 67.3024 14.9225 67.3024 13.4818C67.3024 12.0367 66.4524 11.14 65.1949 11.14C63.9331 11.14 63.0831 12.0367 63.0831 13.4818ZM65.1949 15.1576C66.0011 15.1576 66.5269 14.5482 66.5269 13.4818C66.5269 12.4154 66.0011 11.806 65.1949 11.806C64.3888 11.806 63.8586 12.4154 63.8586 13.4818C63.8586 14.5482 64.3888 15.1576 65.1949 15.1576Z" fill="#C89850"/>
<path fill-rule="evenodd" clip-rule="evenodd" d="M69.7002 15.8235C68.7932 15.8235 68.1842 15.2794 68.1842 14.4655C68.1842 13.6907 68.7845 13.2032 69.836 13.1423L71.1416 13.0683V12.6896C71.1416 12.1368 70.7736 11.806 70.1427 11.806C69.5556 11.806 69.1875 12.0802 69.0912 12.5242H68.3551C68.4077 11.7407 69.0824 11.14 70.1602 11.14C71.2293 11.14 71.904 11.7146 71.904 12.6156V15.7452H71.1811V14.966H71.1635C70.8919 15.484 70.3136 15.8235 69.7002 15.8235ZM71.1416 14.0259C71.1416 14.6788 70.5896 15.1793 69.871 15.1793C69.3234 15.1793 68.9597 14.8964 68.9597 14.4655C68.9597 14.0389 69.3102 13.7691 69.9236 13.7299L71.1416 13.6559V14.0259Z" fill="#C89850"/>
<path fill-rule="evenodd" clip-rule="evenodd" d="M72.9479 13.4818C72.9479 14.9008 73.7366 15.8235 74.8976 15.8235C75.5548 15.8235 76.0762 15.5014 76.3698 14.9791H76.3829V15.7452H77.1102V9.46421H76.3479V11.954H76.3304C76.0587 11.4578 75.5329 11.14 74.8801 11.14C73.7322 11.14 72.9479 12.0628 72.9479 13.4818ZM75.0422 11.806C74.2361 11.806 73.7278 12.4589 73.7278 13.4818C73.7278 14.509 74.2361 15.1576 75.0422 15.1576C75.8265 15.1576 76.3523 14.496 76.3523 13.4818C76.3523 12.4719 75.8265 11.806 75.0422 11.806Z" fill="#C89850"/>
<path fill-rule="evenodd" clip-rule="evenodd" d="M82.4666 15.8235C81.2048 15.8235 80.3548 14.9225 80.3548 13.4818C80.3548 12.0367 81.2048 11.14 82.4666 11.14C83.7241 11.14 84.5741 12.0367 84.5741 13.4818C84.5741 14.9225 83.7241 15.8235 82.4666 15.8235ZM83.7986 13.4818C83.7986 14.5482 83.2728 15.1576 82.4666 15.1576C81.6604 15.1576 81.1303 14.5482 81.1303 13.4818C81.1303 12.4154 81.6604 11.806 82.4666 11.806C83.2728 11.806 83.7986 12.4154 83.7986 13.4818Z" fill="#C89850"/>
<path d="M86.3584 11.2184H85.6399V15.7452H86.4023V13.0813C86.4023 12.3152 86.8711 11.8103 87.5896 11.8103C88.2906 11.8103 88.6368 12.2108 88.6368 12.942V15.7452H89.3991V12.8071C89.3991 11.7799 88.8208 11.14 87.8218 11.14C87.1164 11.14 86.6301 11.4534 86.376 11.9409H86.3584V11.2184Z" fill="#C89850"/>
<path d="M93.8135 10.1258H93.0511V11.2184H92.372V11.8408H93.0511V14.57C93.0511 15.4405 93.3754 15.78 94.2122 15.78C94.3918 15.78 94.6021 15.7669 94.6942 15.7452V15.1097C94.6416 15.1184 94.4663 15.1315 94.3787 15.1315C93.9888 15.1315 93.8135 14.9443 93.8135 14.5308V11.8408H94.6985V11.2184H93.8135V10.1258Z" fill="#C89850"/>
<path d="M95.8476 9.46421V15.7452H96.61V13.1074C96.61 12.3239 97.0788 11.8103 97.8368 11.8103C98.5509 11.8103 98.9146 12.2412 98.9146 12.9594V15.7452H99.677V12.8202C99.677 11.8103 99.0723 11.14 98.0734 11.14C97.3811 11.14 96.8816 11.436 96.6275 11.9409H96.61V9.46421H95.8476Z" fill="#C89850"/>
<path fill-rule="evenodd" clip-rule="evenodd" d="M104.717 14.4481H103.967C103.84 14.8746 103.415 15.1663 102.837 15.1663C102.018 15.1663 101.505 14.5961 101.505 13.7299V13.6863H104.774V13.3991C104.774 12.028 104.016 11.14 102.785 11.14C101.527 11.14 100.721 12.0933 100.721 13.4992C100.721 14.9225 101.514 15.8235 102.82 15.8235C103.814 15.8235 104.585 15.2403 104.717 14.4481ZM102.771 11.7973C102.057 11.7973 101.558 12.3414 101.51 13.0944H103.985C103.967 12.337 103.49 11.7973 102.771 11.7973Z" fill="#C89850"/>
<path fill-rule="evenodd" clip-rule="evenodd" d="M45.4862 31.1427L44.3821 27.9019H39.7817L38.6776 31.1427H36.7286L41.0865 19.1518H43.1107L47.4686 31.1427H45.4862ZM40.2584 26.4062L42.0568 21.1461H42.107L43.9053 26.4062H40.2584Z" fill="#C89850"/>
<path fill-rule="evenodd" clip-rule="evenodd" d="M57.2781 26.7718C57.2781 24.0047 55.8059 22.2596 53.5726 22.2596C52.3012 22.2596 51.2891 22.8995 50.7706 23.905H50.7371V22.4009H48.9889V34.0345H50.7956V29.7051H50.8375C51.3393 30.6774 52.3431 31.2923 53.6061 31.2923C55.8143 31.2923 57.2781 29.539 57.2781 26.7718ZM53.0959 29.7716C54.5262 29.7716 55.4212 28.6083 55.4212 26.7718C55.4212 24.9437 54.5262 23.772 53.0959 23.772C51.7157 23.772 50.7873 24.9686 50.7873 26.7718C50.7873 28.5916 51.7074 29.7716 53.0959 29.7716Z" fill="#C89850"/>
<path fill-rule="evenodd" clip-rule="evenodd" d="M63.6582 22.2596C65.8915 22.2596 67.3636 24.0047 67.3636 26.7718C67.3636 29.539 65.8998 31.2923 63.6916 31.2923C62.4286 31.2923 61.4249 30.6774 60.923 29.7051H60.8812V34.0345H59.0745V22.4009H60.8226V23.905H60.8561C61.3747 22.8995 62.3868 22.2596 63.6582 22.2596ZM65.5067 26.7718C65.5067 28.6083 64.6117 29.7716 63.1814 29.7716C61.7929 29.7716 60.8728 28.5916 60.8728 26.7718C60.8728 24.9686 61.8013 23.772 63.1814 23.772C64.6117 23.772 65.5067 24.9437 65.5067 26.7718Z" fill="#C89850"/>
<path d="M74.5698 27.8022H72.7212C72.8383 29.9711 74.6451 31.3422 77.3217 31.3422C80.1823 31.3422 81.9807 29.9378 81.9807 27.6942C81.9807 25.9408 80.9519 24.952 78.476 24.3703L77.146 24.0462C75.5902 23.664 74.9546 23.1654 74.9546 22.3178C74.9546 21.2541 75.9499 20.5229 77.4053 20.5229C78.8607 20.5229 79.8561 21.2458 79.9649 22.4424H81.7883C81.7298 20.3733 79.9816 18.9523 77.4304 18.9523C74.8542 18.9523 73.0391 20.3733 73.0391 22.4424C73.0391 24.1127 74.0679 25.1431 76.2845 25.6749L77.8486 26.0489C79.4128 26.4311 80.0736 26.9879 80.0736 27.9186C80.0736 28.9905 78.9779 29.7716 77.4555 29.7716C75.8663 29.7716 74.7036 28.9905 74.5698 27.8022Z" fill="#C89850"/>
<path d="M86.1944 20.3318H84.3793V22.4009H83.0995V23.8219H84.3793V28.8409C84.3793 30.5278 85.0735 31.2009 86.8552 31.2009C87.2567 31.2009 87.6581 31.1677 87.8589 31.1178V29.6968C87.7418 29.7218 87.449 29.7384 87.265 29.7384C86.529 29.7384 86.1944 29.3977 86.1944 28.6415V23.8219H87.8673V22.4009H86.1944V20.3318Z" fill="#C89850"/>
<path fill-rule="evenodd" clip-rule="evenodd" d="M89.1534 26.7718C89.1534 29.5888 90.8095 31.3089 93.3273 31.3089C95.8449 31.3089 97.5011 29.5888 97.5011 26.7718C97.5011 23.9631 95.8366 22.243 93.3273 22.243C90.8179 22.243 89.1534 23.9631 89.1534 26.7718ZM93.3273 29.8298C94.7492 29.8298 95.6609 28.7163 95.6609 26.7718C95.6609 24.8356 94.7408 23.7221 93.3273 23.7221C91.9137 23.7221 90.9936 24.8356 90.9936 26.7718C90.9936 28.7163 91.9137 29.8298 93.3273 29.8298Z" fill="#C89850"/>
<path d="M99.3058 22.4009H101.029V23.8883H101.071C101.363 22.8662 102.15 22.2596 103.187 22.2596C103.446 22.2596 103.672 22.3012 103.806 22.3261V23.9964C103.664 23.9382 103.346 23.8966 102.995 23.8966C101.832 23.8966 101.113 24.6694 101.113 25.9076V31.1427H99.3058V22.4009Z" fill="#C89850"/>
<path fill-rule="evenodd" clip-rule="evenodd" d="M111.165 28.5812H112.879C112.628 30.1767 111.106 31.3151 109.09 31.3151C106.506 31.3151 104.941 29.5784 104.941 26.8196C104.941 24.0774 106.531 22.2492 109.015 22.2492C111.457 22.2492 112.98 23.961 112.98 26.6118V27.2267H106.765V27.3348C106.765 28.8555 107.685 29.8609 109.132 29.8609C110.161 29.8609 110.922 29.3457 111.165 28.5812ZM106.765 26.0752L111.165 26.0339C111.165 25.6656 111.009 24.9828 110.645 24.6207C110.281 24.2587 109.744 23.9838 109.015 23.9838C107.547 23.9838 106.765 24.958 106.765 26.0752Z" fill="#C89850"/>
</svg>
