<svg width="32" height="32" viewBox="0 0 32 32" fill="none" xmlns="http://www.w3.org/2000/svg">
<path fill-rule="evenodd" clip-rule="evenodd" d="M19.9647 10.99L18.5617 10.9909C17.4614 10.9909 17.248 11.5169 17.248 12.2884V13.9909H19.8725L19.5306 16.6581H17.248V23.5H14.5118V16.6581H12.2237V13.9909H14.5118V12.025C14.5118 9.74219 15.8972 8.5 17.9198 8.5C18.8887 8.5 19.7216 8.57219 19.9647 8.605V10.99ZM16.0937 1C7.86177 1 1.1875 7.71531 1.1875 16C1.1875 24.2837 7.86177 31 16.0937 31C24.3266 31 31 24.2837 31 16C31 7.71531 24.3266 1 16.0937 1Z" fill="white"/>
</svg>
