<svg width="33" height="32" viewBox="0 0 33 32" fill="none" xmlns="http://www.w3.org/2000/svg">
<rect width="31.9778" height="32" transform="translate(0.910156)" fill="#824E00"/>
<path fill-rule="evenodd" clip-rule="evenodd" d="M20.7914 10.99L19.3805 10.9909C18.2741 10.9909 18.0595 11.5169 18.0595 12.2884V13.9909H20.6986L20.3548 16.6581H18.0595V23.5H15.308V16.6581H13.0071V13.9909H15.308V12.025C15.308 9.74219 16.7011 8.5 18.735 8.5C19.7093 8.5 20.5469 8.57219 20.7914 8.605V10.99ZM16.8988 1C8.62077 1 1.90918 7.71531 1.90918 16C1.90918 24.2837 8.62077 31 16.8988 31C25.1777 31 31.8884 24.2837 31.8884 16C31.8884 7.71531 25.1777 1 16.8988 1Z" fill="white"/>
</svg>
