<svg width="125" height="42" viewBox="0 0 125 42" fill="none" xmlns="http://www.w3.org/2000/svg">
<rect x="0.21582" width="123.914" height="42" rx="6" fill="black"/>
<path d="M38.3067 11.1907H35.7698V11.9386H37.5691C37.4802 12.9874 36.6019 13.4347 35.7729 13.4347C34.7122 13.4347 33.7866 12.6056 33.7866 11.4435C33.7866 10.3115 34.6689 9.43977 35.7751 9.43977C36.6288 9.43977 37.1317 9.98022 37.1317 9.98022L37.6588 9.43794C37.6588 9.43794 36.9822 8.6897 35.7482 8.6897C34.177 8.6897 32.9615 10.0072 32.9615 11.4301C32.9615 12.8246 34.1049 14.1842 35.7882 14.1842C37.2689 14.1842 38.3528 13.1767 38.3528 11.6867C38.3528 11.3723 38.3067 11.1907 38.3067 11.1907Z" fill="#C89850"/>
<path d="M38.7847 23.2445H44.3593C44.3632 23.2603 44.4601 23.6573 44.4601 24.3341C44.4601 27.6082 42.0786 29.8225 38.8252 29.8225C35.126 29.8225 32.6136 26.8347 32.6136 23.7707C32.6136 20.6437 35.2846 17.7487 38.7372 17.7488C41.4486 17.7488 42.9353 19.393 42.9353 19.393L41.777 20.5846C41.777 20.5846 40.6719 19.3967 38.7964 19.3967C36.3656 19.3967 34.4269 21.3125 34.4269 23.8C34.4269 26.3533 36.4606 28.1753 38.7913 28.1753C40.613 28.1753 42.5429 27.1924 42.7383 24.8879H38.7847V23.2445Z" fill="#C89850"/>
<path fill-rule="evenodd" clip-rule="evenodd" d="M45.1713 25.9031C45.1713 23.8309 46.8105 22.0544 49.0981 22.0544C50.9783 22.0544 53.0174 23.378 53.0174 25.9482C53.0174 28.1906 51.2645 29.8154 49.1248 29.8154C46.7612 29.8154 45.1713 28.0058 45.1713 25.9031ZM51.3116 25.938C51.3116 24.4821 50.2457 23.5785 49.1207 23.5785C47.8568 23.5785 46.8854 24.5825 46.8854 25.9266C46.8854 27.3003 47.869 28.2922 49.1156 28.2922C50.2501 28.2922 51.3116 27.3629 51.3116 25.938Z" fill="#C89850"/>
<path fill-rule="evenodd" clip-rule="evenodd" d="M57.7309 22.0544C55.4435 22.0544 53.8041 23.8309 53.8041 25.9031C53.8041 28.0058 55.3941 29.8154 57.7578 29.8154C59.8974 29.8154 61.6503 28.1906 61.6503 25.9482C61.6503 23.378 59.6114 22.0544 57.7309 22.0544ZM57.7536 23.5785C58.8785 23.5785 59.9445 24.4821 59.9445 25.938C59.9445 27.3629 58.883 28.2922 57.7484 28.2922C56.5019 28.2922 55.5184 27.3003 55.5184 25.9266C55.5184 24.5825 56.4896 23.5785 57.7536 23.5785Z" fill="#C89850"/>
<path fill-rule="evenodd" clip-rule="evenodd" d="M62.4367 25.9358C62.4367 23.8853 64.0873 22.0585 66.1867 22.0585C67.1008 22.0585 67.7894 22.4099 68.2929 22.949V22.2918H69.9306V29.2647C69.9306 32.0044 68.3396 33.3104 66.2519 33.3104C64.3435 33.3104 63.2714 32.1446 62.7387 31.0253L64.24 30.4018C64.4479 30.9019 65.0464 31.7837 66.2395 31.7837C67.4746 31.7837 68.2928 30.9815 68.2928 29.6427V28.8775C67.8558 29.3814 67.264 29.8205 66.1505 29.8205C64.3501 29.8205 62.4367 28.2716 62.4367 25.9358ZM66.3387 23.5796C67.3682 23.5796 68.4253 24.4528 68.4253 25.9441C68.4253 27.4598 67.3704 28.2951 66.316 28.2951C65.1968 28.2951 64.1552 27.3923 64.1552 25.9585C64.1552 24.4687 65.2369 23.5796 66.3387 23.5796Z" fill="#C89850"/>
<path fill-rule="evenodd" clip-rule="evenodd" d="M73.9132 25.9246C73.9132 23.6146 75.576 22.0491 77.5565 22.0491C79.1186 22.0491 80.2989 23.0842 80.8048 24.3232L81.0769 24.956L75.8392 27.115C76.1521 27.6936 76.657 28.291 77.755 28.2911C78.7325 28.2911 79.3184 27.7631 79.6688 27.2228L81.019 28.1154C80.4137 28.9202 79.3994 29.8183 77.7468 29.8183C75.7666 29.8183 73.9132 28.3688 73.9132 25.9246ZM77.6249 23.5417C78.3385 23.5417 78.8521 23.9185 79.0702 24.3705L75.5725 25.8229C75.4217 24.6984 76.4942 23.5417 77.6249 23.5417Z" fill="#C89850"/>
<path d="M72.9644 29.588H71.244V18.1501H72.9644V29.588Z" fill="#C89850"/>
<path d="M94.31 29.588H96.0304V18.1501H94.31V29.588Z" fill="#C89850"/>
<path fill-rule="evenodd" clip-rule="evenodd" d="M86.9073 29.588H85.1869V18.1501L89.3484 18.15C91.3657 18.15 93.0162 19.7896 93.0162 21.7938C93.0162 23.7978 91.3657 25.4374 89.3484 25.4374H86.9073V29.588ZM86.9073 23.7283V19.8591H89.3484C90.4162 19.8591 91.2959 20.733 91.2959 21.7938C91.2959 22.8544 90.4162 23.7283 89.3484 23.7283H86.9073Z" fill="#C89850"/>
<path d="M108.732 33.3104L113.714 22.0494H111.835L109.58 27.1452L107.326 22.0494H105.447L108.641 29.2693L106.853 33.3104H108.732Z" fill="#C89850"/>
<path fill-rule="evenodd" clip-rule="evenodd" d="M103.071 29.588H104.792V25.4742C105.061 21.2315 99.6466 20.2336 97.5979 23.2922L98.9823 24.2151C99.9841 22.4752 102.843 22.8755 103.03 24.7401C102.171 24.5141 101.243 24.3502 100.395 24.4354C99.0718 24.5684 97.9386 25.4035 97.7586 26.7712C97.6612 27.5103 97.8273 28.4213 98.3466 28.9765C99.156 29.8416 100.485 29.9582 101.577 29.6626C102.191 29.4961 102.675 29.1334 103.071 28.6647V29.588ZM101.168 28.1717C102.109 27.917 102.851 27.2328 103.071 26.2816C102.59 26.1268 102.147 26.0018 101.64 25.9409C98.6833 25.4994 99.1782 28.7105 101.168 28.1717Z" fill="#C89850"/>
<path d="M49.4588 14.0776H48.6759V8.87237H49.4588V14.0776Z" fill="#C89850"/>
<path d="M44.2913 14.0776H45.0743V9.65012H46.3594V8.87237H43.0062V9.65012H44.2913V14.0776Z" fill="#C89850"/>
<path d="M42.1807 14.0776H39.1781V8.87237H42.1807V9.65012H39.9611V11.0861H41.9135V11.8639H39.9611V13.2997H42.1807V14.0776Z" fill="#C89850"/>
<path d="M52.1642 14.0776V9.65012H53.4493V8.87237H50.0962V9.65012H51.3813V14.0776H52.1642Z" fill="#C89850"/>
<path fill-rule="evenodd" clip-rule="evenodd" d="M55.4638 11.4301C55.4638 10.007 56.6794 8.6897 58.2506 8.6897C59.8219 8.6897 61.0374 10.007 61.0374 11.4301C61.0374 12.8134 59.9121 14.1624 58.2506 14.1837C56.5892 14.1624 55.4638 12.8134 55.4638 11.4301ZM58.2506 13.4344C57.2003 13.4216 56.289 12.5966 56.289 11.4435C56.289 10.3208 57.1571 9.45403 58.2506 9.44001C59.3443 9.45403 60.2122 10.3208 60.2122 11.4435C60.2122 12.5966 59.301 13.4216 58.2506 13.4344Z" fill="#C89850"/>
<path d="M62.6025 14.0776H61.8195V8.87237H62.6025L65.1157 12.662V8.87237H65.8987V14.0776H65.117L62.6025 10.286V14.0776Z" fill="#C89850"/>
<path d="M11.5837 15.1823L20.4297 23.9573L11.6262 32.8092C11.3693 32.647 11.2316 32.2958 11.2292 31.8422L11.1494 16.1314C11.147 15.6346 11.3289 15.3315 11.5837 15.1823Z" fill="#C89850"/>
<path d="M12.59 15.1941L23.3468 21.0243L20.7956 23.5892L12.2146 15.0769C12.3446 15.0939 12.4751 15.1318 12.59 15.1941Z" fill="#C89850"/>
<path d="M23.8251 26.5944L21.1641 23.9547L23.8224 21.2821L27.4832 23.266C28.385 23.7545 27.9237 24.3657 27.4832 24.6052L23.8251 26.5944Z" fill="#C89850"/>
<path d="M12.59 32.7031C12.5087 32.7482 12.4304 32.7836 12.3554 32.8116L20.7982 24.3227L23.349 26.853L12.59 32.7031Z" fill="#C89850"/>
</svg>
