<svg width="33" height="32" viewBox="0 0 33 32" fill="none" xmlns="http://www.w3.org/2000/svg">
<path fill-rule="evenodd" clip-rule="evenodd" d="M16.3241 18.8948C17.9069 18.8948 19.1907 17.6067 19.1907 16.0167C19.1907 14.4276 17.9069 13.1395 16.3241 13.1395C14.7412 13.1395 13.4574 14.4276 13.4574 16.0167C13.4574 17.6067 14.7412 18.8948 16.3241 18.8948ZM19.625 13.0694H21.6401C21.8702 13.0694 22.0575 12.8819 22.0575 12.6512V10.6272C22.0575 10.3966 21.8702 10.2091 21.6401 10.2091H19.625C19.3948 10.2091 19.2076 10.3966 19.2076 10.6272V12.6512C19.2076 12.8819 19.3948 13.0694 19.625 13.0694ZM23.7598 21.7206C23.7598 22.7031 22.9669 23.5 21.9878 23.5H10.6255C9.64727 23.5 8.85351 22.7031 8.85351 21.7206V10.2784C8.85351 9.29594 9.64727 8.5 10.6255 8.5H21.9878C22.9669 8.5 23.7598 9.29594 23.7598 10.2784V21.7206ZM16.3066 1C8.07373 1 1.40039 7.71531 1.40039 16C1.40039 24.2837 8.07373 31 16.3066 31C24.5395 31 31.2129 24.2837 31.2129 16C31.2129 7.71531 24.5395 1 16.3066 1ZM20.8584 16.0171C20.8584 18.5268 18.8247 20.5696 16.3242 20.5696C13.8236 20.5696 11.7899 18.5268 11.7899 16.0171C11.7899 15.6008 11.8458 15.1967 11.951 14.8133H10.5564V21.3364C10.5564 21.568 10.7427 21.7555 10.9728 21.7555H21.6746C21.9056 21.7555 22.0919 21.568 22.0919 21.3364V14.8133H20.6973C20.8025 15.1967 20.8584 15.6008 20.8584 16.0171Z" fill="white"/>
</svg>
