<svg width="33" height="32" viewBox="0 0 33 32" fill="none" xmlns="http://www.w3.org/2000/svg">
<rect width="31.9778" height="32" transform="translate(0.822266)" fill="#824E00"/>
<path fill-rule="evenodd" clip-rule="evenodd" d="M16.8284 18.8948C18.4201 18.8948 19.7111 17.6067 19.7111 16.0167C19.7111 14.4276 18.4201 13.1395 16.8284 13.1395C15.2367 13.1395 13.9457 14.4276 13.9457 16.0167C13.9457 17.6067 15.2367 18.8948 16.8284 18.8948ZM20.1477 13.0694H22.1741C22.4055 13.0694 22.5938 12.8819 22.5938 12.6512V10.6272C22.5938 10.3966 22.4055 10.2091 22.1741 10.2091H20.1477C19.9163 10.2091 19.728 10.3966 19.728 10.6272V12.6512C19.728 12.8819 19.9163 13.0694 20.1477 13.0694ZM24.3057 21.7206C24.3057 22.7031 23.5084 23.5 22.5238 23.5H11.098C10.1143 23.5 9.31608 22.7031 9.31608 21.7206V10.2784C9.31608 9.29594 10.1143 8.5 11.098 8.5H22.5238C23.5084 8.5 24.3057 9.29594 24.3057 10.2784V21.7206ZM16.8109 1C8.53194 1 1.82129 7.71531 1.82129 16C1.82129 24.2837 8.53194 31 16.8109 31C25.0898 31 31.8004 24.2837 31.8004 16C31.8004 7.71531 25.0898 1 16.8109 1ZM21.3881 16.0171C21.3881 18.5268 19.343 20.5696 16.8285 20.5696C14.314 20.5696 12.2688 18.5268 12.2688 16.0171C12.2688 15.6008 12.325 15.1967 12.4309 14.8133H11.0285V21.3364C11.0285 21.568 11.2158 21.7555 11.4472 21.7555H22.2088C22.4411 21.7555 22.6285 21.568 22.6285 21.3364V14.8133H21.226C21.3319 15.1967 21.3881 15.6008 21.3881 16.0171Z" fill="white"/>
</svg>
