<svg width="33" height="32" viewBox="0 0 33 32" fill="none" xmlns="http://www.w3.org/2000/svg">
<rect width="31.9778" height="32" transform="translate(0.851562)" fill="#824E00"/>
<path fill-rule="evenodd" clip-rule="evenodd" d="M24.335 23.4859H21.2293V18.6222C21.2293 17.4625 21.2087 15.9709 19.6151 15.9709C17.9991 15.9709 17.7527 17.2347 17.7527 18.5397V23.4859H14.6498V13.4847H17.6271V14.8525H17.6702C18.0843 14.0659 19.098 13.2362 20.6091 13.2362C23.7541 13.2362 24.335 15.3072 24.335 18.0006V23.4859ZM11.1479 12.1187C10.1501 12.1187 9.34538 11.3106 9.34538 10.3159C9.34538 9.32125 10.1501 8.51312 11.1479 8.51312C12.1409 8.51312 12.9476 9.32125 12.9476 10.3159C12.9476 11.3106 12.1409 12.1187 11.1479 12.1187ZM12.7012 23.4859H9.59177V13.4847H12.7012V23.4859ZM16.8402 1C8.56124 1 1.85059 7.71531 1.85059 16C1.85059 24.2837 8.56124 31 16.8402 31C25.1191 31 31.8298 24.2837 31.8298 16C31.8298 7.71531 25.1191 1 16.8402 1Z" fill="white"/>
</svg>
