<svg width="33" height="32" viewBox="0 0 33 32" fill="none" xmlns="http://www.w3.org/2000/svg">
<path fill-rule="evenodd" clip-rule="evenodd" d="M24.0215 23.4859H20.9331V18.6222C20.9331 17.4625 20.9126 15.9709 19.3279 15.9709C17.7208 15.9709 17.4758 17.2347 17.4758 18.5397V23.4859H14.3902V13.4847H17.3509V14.8525H17.3938C17.8056 14.0659 18.8136 13.2362 20.3164 13.2362C23.4439 13.2362 24.0215 15.3072 24.0215 18.0006V23.4859ZM10.9077 12.1187C9.91551 12.1187 9.11524 11.3106 9.11524 10.3159C9.11524 9.32125 9.91551 8.51312 10.9077 8.51312C11.8953 8.51312 12.6974 9.32125 12.6974 10.3159C12.6974 11.3106 11.8953 12.1187 10.9077 12.1187ZM12.4524 23.4859H9.36026V13.4847H12.4524V23.4859ZM16.5684 1C8.33545 1 1.66211 7.71531 1.66211 16C1.66211 24.2837 8.33545 31 16.5684 31C24.8013 31 31.4746 24.2837 31.4746 16C31.4746 7.71531 24.8013 1 16.5684 1Z" fill="white"/>
</svg>
