<svg width="33" height="32" viewBox="0 0 33 32" fill="none" xmlns="http://www.w3.org/2000/svg">
<path fill-rule="evenodd" clip-rule="evenodd" d="M22.7591 12.9409C22.7647 13.0731 22.7684 13.2053 22.7684 13.3394C22.7684 17.4053 19.6922 22.0947 14.0669 22.0947C12.3397 22.0947 10.7326 21.5856 9.37891 20.7128C9.61834 20.7409 9.8615 20.755 10.1084 20.755C11.5412 20.755 12.8595 20.2638 13.9067 19.4378C12.5679 19.4134 11.4388 18.5238 11.0493 17.3013C11.2366 17.3369 11.4276 17.3556 11.6251 17.3556C11.9037 17.3556 12.1738 17.3181 12.431 17.2478C11.0316 16.9656 9.97795 15.7216 9.97795 14.2309C9.97795 14.2178 9.97795 14.2047 9.97795 14.1916C10.3897 14.4222 10.8621 14.5609 11.3633 14.5769C10.5425 14.0247 10.0022 13.0825 10.0022 12.0156C10.0022 11.4513 10.1531 10.9225 10.4168 10.4678C11.9251 12.3297 14.1787 13.555 16.7202 13.6834C16.6681 13.4584 16.641 13.2231 16.641 12.9822C16.641 11.2825 18.0106 9.90438 19.6987 9.90438C20.5791 9.90438 21.3738 10.2784 21.9309 10.8766C22.6278 10.7388 23.2827 10.4828 23.8734 10.1303C23.6451 10.8484 23.1597 11.4513 22.529 11.8328C23.1476 11.7578 23.7364 11.5928 24.2852 11.3481C23.8752 11.965 23.3563 12.5069 22.7591 12.9409ZM16.832 1C8.59912 1 1.92578 7.71531 1.92578 16C1.92578 24.2837 8.59912 31 16.832 31C25.0649 31 31.7383 24.2837 31.7383 16C31.7383 7.71531 25.0649 1 16.832 1Z" fill="white"/>
</svg>
