<svg width="33" height="32" viewBox="0 0 33 32" fill="none" xmlns="http://www.w3.org/2000/svg">
<rect width="31.9778" height="32" transform="translate(0.880859)" fill="#824E00"/>
<path fill-rule="evenodd" clip-rule="evenodd" d="M22.8297 12.9409C22.8353 13.0731 22.8391 13.2053 22.8391 13.3394C22.8391 17.4053 19.7456 22.0947 14.0889 22.0947C12.352 22.0947 10.7359 21.5856 9.37467 20.7128C9.61544 20.7409 9.85996 20.755 10.1082 20.755C11.5491 20.755 12.8747 20.2638 13.9278 19.4378C12.5815 19.4134 11.446 18.5238 11.0544 17.3013C11.2427 17.3369 11.4348 17.3556 11.6334 17.3556C11.9135 17.3556 12.1852 17.3181 12.4438 17.2478C11.0366 16.9656 9.97707 15.7216 9.97707 14.2309C9.97707 14.2178 9.97707 14.2047 9.97707 14.1916C10.3912 14.4222 10.8661 14.5609 11.3702 14.5769C10.5448 14.0247 10.0014 13.0825 10.0014 12.0156C10.0014 11.4513 10.1532 10.9225 10.4183 10.4678C11.9351 12.3297 14.2013 13.555 16.757 13.6834C16.7046 13.4584 16.6774 13.2231 16.6774 12.9822C16.6774 11.2825 18.0546 9.90438 19.7521 9.90438C20.6375 9.90438 21.4366 10.2784 21.9968 10.8766C22.6976 10.7388 23.3562 10.4828 23.9502 10.1303C23.7206 10.8484 23.2325 11.4513 22.5983 11.8328C23.2204 11.7578 23.8124 11.5928 24.3642 11.3481C23.952 11.965 23.4302 12.5069 22.8297 12.9409ZM16.8695 1C8.59053 1 1.87988 7.71531 1.87988 16C1.87988 24.2837 8.59053 31 16.8695 31C25.1484 31 31.859 24.2837 31.859 16C31.859 7.71531 25.1484 1 16.8695 1Z" fill="white"/>
</svg>
