<svg width="33" height="32" viewBox="0 0 33 32" fill="none" xmlns="http://www.w3.org/2000/svg">
<rect width="31.9778" height="32" transform="translate(0.793945)" fill="#824E00"/>
<path fill-rule="evenodd" clip-rule="evenodd" d="M24.2773 16.5662C24.2773 17.7803 24.1274 18.9944 24.1274 18.9944C24.1274 18.9944 23.9813 20.0275 23.5316 20.4831C22.962 21.0803 22.3231 21.0831 22.0298 21.1178C19.9322 21.2697 16.7825 21.2744 16.7825 21.2744C16.7825 21.2744 12.8853 21.2388 11.6861 21.1244C11.3526 21.0616 10.6031 21.0803 10.0335 20.4831C9.5838 20.0275 9.43765 18.9944 9.43765 18.9944C9.43765 18.9944 9.28775 17.7803 9.28775 16.5662V15.4281C9.28775 14.2141 9.43765 13.0009 9.43765 13.0009C9.43765 13.0009 9.5838 11.9669 10.0335 11.5113C10.6031 10.9141 11.242 10.9113 11.5353 10.8766C13.6329 10.7247 16.7797 10.7247 16.7797 10.7247H16.7853C16.7853 10.7247 19.9322 10.7247 22.0298 10.8766C22.3231 10.9113 22.962 10.9141 23.5316 11.5113C23.9813 11.9669 24.1274 13.0009 24.1274 13.0009C24.1274 13.0009 24.2773 14.2141 24.2773 15.4281V16.5662ZM16.7825 1C8.50361 1 1.79297 7.71531 1.79297 16C1.79297 24.2837 8.50361 31 16.7825 31C25.0615 31 31.7721 24.2837 31.7721 16C31.7721 7.71531 25.0615 1 16.7825 1ZM15.2351 17.9453L19.285 15.8453L15.2341 13.7303L15.2351 17.9453Z" fill="white"/>
</svg>
