<svg width="32" height="32" viewBox="0 0 32 32" fill="none" xmlns="http://www.w3.org/2000/svg">
<path fill-rule="evenodd" clip-rule="evenodd" d="M23.4961 16.5662C23.4961 17.7803 23.347 18.9944 23.347 18.9944C23.347 18.9944 23.2017 20.0275 22.7545 20.4831C22.1881 21.0803 21.5527 21.0831 21.2611 21.1178C19.1752 21.2697 16.043 21.2744 16.043 21.2744C16.043 21.2744 12.1673 21.2388 10.9748 21.1244C10.6432 21.0616 9.89787 21.0803 9.33143 20.4831C8.88425 20.0275 8.73891 18.9944 8.73891 18.9944C8.73891 18.9944 8.58985 17.7803 8.58985 16.5662V15.4281C8.58985 14.2141 8.73891 13.0009 8.73891 13.0009C8.73891 13.0009 8.88425 11.9669 9.33143 11.5113C9.89787 10.9141 10.5333 10.9113 10.8249 10.8766C12.9108 10.7247 16.0402 10.7247 16.0402 10.7247H16.0458C16.0458 10.7247 19.1752 10.7247 21.2611 10.8766C21.5527 10.9113 22.1881 10.9141 22.7545 11.5113C23.2017 11.9669 23.347 13.0009 23.347 13.0009C23.347 13.0009 23.4961 14.2141 23.4961 15.4281V16.5662ZM16.043 1C7.81006 1 1.13672 7.71531 1.13672 16C1.13672 24.2837 7.81006 31 16.043 31C24.2759 31 30.9492 24.2837 30.9492 16C30.9492 7.71531 24.2759 1 16.043 1ZM14.5041 17.9453L18.5316 15.8453L14.5032 13.7303L14.5041 17.9453Z" fill="white"/>
</svg>
