<svg width="26" height="27" viewBox="0 0 26 27" fill="none" xmlns="http://www.w3.org/2000/svg">
<path d="M12.9736 2.80414C7.43675 2.80414 2.95312 7.72065 2.95312 13.7785C2.95312 19.8363 7.43675 24.7529 12.9736 24.7529C18.5204 24.7529 23.0141 19.8363 23.0141 13.7785C23.0141 7.72065 18.5204 2.80414 12.9736 2.80414ZM19.9247 9.38875H16.9657C16.6447 8.01696 16.1833 6.70004 15.5815 5.48188C17.4271 6.17327 18.9618 7.57798 19.9247 9.38875ZM12.9836 5.04291C13.8161 6.35983 14.4681 7.81942 14.8994 9.38875H11.0678C11.4991 7.81942 12.1511 6.35983 12.9836 5.04291ZM5.22001 15.9734C5.05953 15.271 4.95922 14.5357 4.95922 13.7785C4.95922 13.0213 5.05953 12.286 5.22001 11.5836H8.61032C8.53007 12.3079 8.46989 13.0322 8.46989 13.7785C8.46989 14.5248 8.53007 15.2491 8.61032 15.9734H5.22001ZM6.04251 18.1682H9.00151C9.32248 19.54 9.78388 20.857 10.3857 22.0751C8.5401 21.3837 7.00544 19.99 6.04251 18.1682ZM9.00151 9.38875H6.04251C7.00544 7.56701 8.5401 6.17327 10.3857 5.48188C9.78388 6.70004 9.32248 8.01696 9.00151 9.38875ZM12.9836 22.5141C12.1511 21.1972 11.4991 19.7376 11.0678 18.1682H14.8994C14.4681 19.7376 13.8161 21.1972 12.9836 22.5141ZM15.3307 15.9734H10.6365C10.5462 15.2491 10.476 14.5248 10.476 13.7785C10.476 13.0322 10.5462 12.297 10.6365 11.5836H15.3307C15.421 12.297 15.4912 13.0322 15.4912 13.7785C15.4912 14.5248 15.421 15.2491 15.3307 15.9734ZM15.5815 22.0751C16.1833 20.857 16.6447 19.54 16.9657 18.1682H19.9247C18.9618 19.979 17.4271 21.3837 15.5815 22.0751ZM17.3569 15.9734C17.4371 15.2491 17.4973 14.5248 17.4973 13.7785C17.4973 13.0322 17.4371 12.3079 17.3569 11.5836H20.7472C20.9077 12.286 21.008 13.0213 21.008 13.7785C21.008 14.5357 20.9077 15.271 20.7472 15.9734H17.3569Z" fill="#8B96A5"/>
</svg>
