<svg width="52" height="45" viewBox="0 0 52 45" fill="none" xmlns="http://www.w3.org/2000/svg">
<g filter="url(#filter0_d_1063_23219)">
<rect x="2.14453" y="1.92474" width="47.1604" height="39.5699" rx="6" fill="#FAF5EE"/>
<path d="M30.6445 12.7498C28.9045 12.7498 27.2345 13.5598 26.1445 14.8398C25.0545 13.5598 23.3845 12.7498 21.6445 12.7498C18.5645 12.7498 16.1445 15.1698 16.1445 18.2498C16.1445 22.0298 19.5445 25.1098 24.6945 29.7898L26.1445 31.0998L27.5945 29.7798C32.7445 25.1098 36.1445 22.0298 36.1445 18.2498C36.1445 15.1698 33.7245 12.7498 30.6445 12.7498ZM26.2445 28.2998L26.1445 28.3998L26.0445 28.2998C21.2845 23.9898 18.1445 21.1398 18.1445 18.2498C18.1445 16.2498 19.6445 14.7498 21.6445 14.7498C23.1845 14.7498 24.6845 15.7398 25.2145 17.1098H27.0845C27.6045 15.7398 29.1045 14.7498 30.6445 14.7498C32.6445 14.7498 34.1445 16.2498 34.1445 18.2498C34.1445 21.1398 31.0045 23.9898 26.2445 28.2998Z" fill="#C89850"/>
</g>
<defs>
<filter id="filter0_d_1063_23219" x="0.144531" y="0.924744" width="51.1602" height="43.5699" filterUnits="userSpaceOnUse" color-interpolation-filters="sRGB">
<feFlood flood-opacity="0" result="BackgroundImageFix"/>
<feColorMatrix in="SourceAlpha" type="matrix" values="0 0 0 0 0 0 0 0 0 0 0 0 0 0 0 0 0 0 127 0" result="hardAlpha"/>
<feOffset dy="1"/>
<feGaussianBlur stdDeviation="1"/>
<feColorMatrix type="matrix" values="0 0 0 0 0.220833 0 0 0 0 0.220833 0 0 0 0 0.220833 0 0 0 0.08 0"/>
<feBlend mode="normal" in2="BackgroundImageFix" result="effect1_dropShadow_1063_23219"/>
<feBlend mode="normal" in="SourceGraphic" in2="effect1_dropShadow_1063_23219" result="shape"/>
</filter>
</defs>
</svg>
