<svg width="39" height="44" viewBox="0 0 39 44" fill="none" xmlns="http://www.w3.org/2000/svg">
<path d="M35.4696 22.6232C35.4898 21.2951 35.3685 19.9691 35.1083 18.6738H19.0566V25.8429H28.4788C28.3003 27.0999 27.8986 28.3032 27.298 29.3803C26.6973 30.4574 25.91 31.386 24.9835 32.1105L24.9507 32.3506L30.0262 36.7932L30.3777 36.833C33.6068 33.4629 35.4689 28.5044 35.4689 22.6232" fill="#4285F4"/>
<path d="M19.0564 41.5128C23.6723 41.5128 27.5476 39.7955 30.3784 36.8333L24.9833 32.1109C23.5396 33.2488 21.602 34.0431 19.0564 34.0431C16.8944 34.0288 14.7913 33.2456 13.0454 31.8046C11.2996 30.3636 9.99964 28.338 9.33006 26.0151L9.1297 26.0344L3.85218 30.6493L3.7832 30.866C5.20457 34.0668 7.38589 36.7578 10.0833 38.638C12.7806 40.5182 15.8877 41.5136 19.057 41.5128" fill="#34A853"/>
<path d="M9.32944 26.0151C8.95548 24.7854 8.76252 23.4947 8.75823 22.1945C8.76512 20.8963 8.95096 19.6074 9.30908 18.3739L9.29955 18.1178L3.95733 13.4287L3.78258 13.5226C2.58354 16.2125 1.95898 19.1824 1.95898 22.1943C1.95898 25.2061 2.58354 28.1761 3.78258 30.866L9.32944 26.0151Z" fill="#FBBC05"/>
<path d="M19.0551 10.3461C21.5049 10.3031 23.8742 11.334 25.6658 13.2225L30.491 7.89908C27.3963 4.61863 23.2981 2.81868 19.0551 2.87634C15.8858 2.87549 12.7787 3.87079 10.0814 5.75094C7.384 7.63109 5.20266 10.322 3.78125 13.5227L9.30971 18.374C9.98589 16.0515 11.2901 14.0275 13.0385 12.5872C14.787 11.1469 16.8914 10.363 19.0551 10.3461Z" fill="#EB4335"/>
</svg>
