<svg width="43" height="43" viewBox="0 0 43 43" fill="none" xmlns="http://www.w3.org/2000/svg">
<path d="M37.9721 14.3619C38.027 14.5816 38.0545 14.9385 38.0545 15.4328C38.0545 19.3867 37.0934 23.2034 35.1713 26.8828C33.1943 30.7819 30.4211 33.8847 26.8515 36.1912C22.9524 38.7722 18.4767 40.0628 13.4244 40.0628C8.59178 40.0628 4.17101 38.7722 0.162109 36.1912C0.76619 36.2461 1.45265 36.2735 2.22148 36.2735C6.23038 36.2735 9.8274 35.0379 13.0126 32.5667C11.0905 32.5667 9.4018 32.0038 7.94651 30.878C6.49123 29.7522 5.489 28.3381 4.93984 26.6357C5.489 26.6906 6.01071 26.7181 6.50496 26.7181C7.27379 26.7181 8.04262 26.6357 8.81145 26.471C6.83446 26.0316 5.18696 25.0157 3.86897 23.4231C2.55097 21.8305 1.89198 20.0183 1.89198 17.9864V17.8216C3.10014 18.5355 4.39068 18.92 5.76359 18.9749C4.61034 18.1511 3.67676 17.1077 2.96285 15.8446C2.24893 14.5816 1.89198 13.1949 1.89198 11.6847C1.89198 10.1745 2.30385 8.73295 3.1276 7.36004C5.26934 10.0509 7.8916 12.1927 10.9944 13.7853C14.0972 15.3778 17.4059 16.2565 20.9205 16.4213C20.8107 15.7623 20.7558 15.1033 20.7558 14.4443C20.7558 12.9066 21.1402 11.465 21.909 10.1196C22.6778 8.77414 23.7213 7.717 25.0393 6.94817C26.3573 6.17934 27.7851 5.79492 29.3227 5.79492C30.5858 5.79492 31.7528 6.04205 32.8237 6.53629C33.8945 7.03054 34.8418 7.68954 35.6656 8.51329C37.6426 8.12887 39.4823 7.44242 41.1847 6.45392C40.5257 8.48583 39.2626 10.0784 37.3955 11.2316C39.0429 11.012 40.6904 10.5452 42.3379 9.83128C41.1298 11.5886 39.6745 13.0988 37.9721 14.3619Z" fill="#271C0C"/>
</svg>
